<?xml version="1.0" encoding="UTF-8" standalone="no"?>
<!DOCTYPE svg PUBLIC "-//W3C//DTD SVG 1.1//EN"
 "http://www.w3.org/Graphics/SVG/1.1/DTD/svg11.dtd">
<!-- Generated by graphviz version 2.47.0 (20210316.0004)
 -->
<!-- Title: dependencies Pages: 1 -->
<svg width="1020pt" height="211pt"
 viewBox="0.00 0.00 1020.00 211.00" xmlns="http://www.w3.org/2000/svg" xmlns:xlink="http://www.w3.org/1999/xlink">
<g id="graph0" class="graph" transform="scale(1 1) rotate(0) translate(4 207)">
<title>dependencies</title>
<polygon fill="white" stroke="transparent" points="-4,4 -4,-207 1016,-207 1016,4 -4,4"/>
<text text-anchor="start" x="485.01" y="-42.4" font-family="Times-12" font-weight="bold" font-size="14.00">Legend</text>
<polygon fill="#ffffb3" stroke="transparent" points="272,-10 272,-30 292,-30 292,-10 272,-10"/>
<text text-anchor="start" x="295.63" y="-15.4" font-family="Times-12" font-size="14.00"> &#160;Declarations</text>
<polygon fill="#8dd3c7" stroke="transparent" points="385,-10 385,-30 405,-30 405,-10 385,-10"/>
<text text-anchor="start" x="408.73" y="-15.4" font-family="Times-12" font-size="14.00"> &#160;Module</text>
<polygon fill="#80b1d3" stroke="transparent" points="471,-10 471,-30 491,-30 491,-10 471,-10"/>
<text text-anchor="start" x="494.78" y="-15.4" font-family="Times-12" font-size="14.00"> &#160;Bootstrap</text>
<polygon fill="#fdb462" stroke="transparent" points="568,-10 568,-30 588,-30 588,-10 568,-10"/>
<text text-anchor="start" x="591.67" y="-15.4" font-family="Times-12" font-size="14.00"> &#160;Providers</text>
<polygon fill="#fb8072" stroke="transparent" points="664,-10 664,-30 684,-30 684,-10 664,-10"/>
<text text-anchor="start" x="687.73" y="-15.4" font-family="Times-12" font-size="14.00"> &#160;Exports</text>
<g id="clust1" class="cluster">
<title>cluster_AuthModule</title>
<polygon fill="none" stroke="black" stroke-dasharray="1,5" points="8,-70 8,-195 1004,-195 1004,-70 8,-70"/>
</g>
<g id="clust6" class="cluster">
<title>cluster_AuthModule_providers</title>
<polygon fill="none" stroke="black" points="16,-78 16,-130 996,-130 996,-78 16,-78"/>
</g>
<!-- AuthService -->
<g id="node1" class="node">
<title>AuthService</title>
<ellipse fill="#fdb462" stroke="black" cx="929" cy="-104" rx="59.11" ry="18"/>
<text text-anchor="middle" x="929" y="-99.8" font-family="Times,serif" font-size="14.00">AuthService</text>
</g>
<!-- AuthModule -->
<g id="node7" class="node">
<title>AuthModule</title>
<polygon fill="#8dd3c7" stroke="black" points="556.55,-187 553.55,-191 532.55,-191 529.55,-187 469.45,-187 469.45,-151 556.55,-151 556.55,-187"/>
<text text-anchor="middle" x="513" y="-164.8" font-family="Times,serif" font-size="14.00">AuthModule</text>
</g>
<!-- AuthService&#45;&gt;AuthModule -->
<g id="edge1" class="edge">
<title>AuthService&#45;&gt;AuthModule</title>
<path fill="none" stroke="black" d="M929,-122.28C929,-143.32 929,-175 929,-175 929,-175 566.73,-175 566.73,-175"/>
<polygon fill="black" stroke="black" points="566.73,-171.5 556.73,-175 566.73,-178.5 566.73,-171.5"/>
</g>
<!-- GithubAuthGuard -->
<g id="node2" class="node">
<title>GithubAuthGuard</title>
<ellipse fill="#fdb462" stroke="black" cx="770" cy="-104" rx="81.11" ry="18"/>
<text text-anchor="middle" x="770" y="-99.8" font-family="Times,serif" font-size="14.00">GithubAuthGuard</text>
</g>
<!-- GithubAuthGuard&#45;&gt;AuthModule -->
<g id="edge2" class="edge">
<title>GithubAuthGuard&#45;&gt;AuthModule</title>
<path fill="none" stroke="black" d="M770,-122.02C770,-139.37 770,-163 770,-163 770,-163 566.6,-163 566.6,-163"/>
<polygon fill="black" stroke="black" points="566.6,-159.5 556.6,-163 566.6,-166.5 566.6,-159.5"/>
</g>
<!-- GithubStratergy -->
<g id="node3" class="node">
<title>GithubStratergy</title>
<ellipse fill="#fdb462" stroke="black" cx="597" cy="-104" rx="73.01" ry="18"/>
<text text-anchor="middle" x="597" y="-99.8" font-family="Times,serif" font-size="14.00">GithubStratergy</text>
</g>
<!-- GithubStratergy&#45;&gt;AuthModule -->
<g id="edge3" class="edge">
<title>GithubStratergy&#45;&gt;AuthModule</title>
<path fill="none" stroke="black" d="M540.26,-115.62C540.26,-115.62 540.26,-140.85 540.26,-140.85"/>
<polygon fill="black" stroke="black" points="536.76,-140.85 540.26,-150.85 543.76,-140.85 536.76,-140.85"/>
</g>
<!-- LocalAuthGuard -->
<g id="node4" class="node">
<title>LocalAuthGuard</title>
<ellipse fill="#fdb462" stroke="black" cx="429" cy="-104" rx="76.43" ry="18"/>
<text text-anchor="middle" x="429" y="-99.8" font-family="Times,serif" font-size="14.00">LocalAuthGuard</text>
</g>
<!-- LocalAuthGuard&#45;&gt;AuthModule -->
<g id="edge4" class="edge">
<title>LocalAuthGuard&#45;&gt;AuthModule</title>
<path fill="none" stroke="black" d="M487.34,-115.92C487.34,-115.92 487.34,-140.77 487.34,-140.77"/>
<polygon fill="black" stroke="black" points="483.84,-140.77 487.34,-150.77 490.84,-140.77 483.84,-140.77"/>
</g>
<!-- LocalStratergy -->
<g id="node5" class="node">
<title>LocalStratergy</title>
<ellipse fill="#fdb462" stroke="black" cx="266" cy="-104" rx="68.33" ry="18"/>
<text text-anchor="middle" x="266" y="-99.8" font-family="Times,serif" font-size="14.00">LocalStratergy</text>
</g>
<!-- LocalStratergy&#45;&gt;AuthModule -->
<g id="edge5" class="edge">
<title>LocalStratergy&#45;&gt;AuthModule</title>
<path fill="none" stroke="black" d="M266,-122.02C266,-139.37 266,-163 266,-163 266,-163 459.41,-163 459.41,-163"/>
<polygon fill="black" stroke="black" points="459.41,-166.5 469.41,-163 459.41,-159.5 459.41,-166.5"/>
</g>
<!-- SessionSerializer -->
<g id="node6" class="node">
<title>SessionSerializer</title>
<ellipse fill="#fdb462" stroke="black" cx="102" cy="-104" rx="77.58" ry="18"/>
<text text-anchor="middle" x="102" y="-99.8" font-family="Times,serif" font-size="14.00">SessionSerializer</text>
</g>
<!-- SessionSerializer&#45;&gt;AuthModule -->
<g id="edge6" class="edge">
<title>SessionSerializer&#45;&gt;AuthModule</title>
<path fill="none" stroke="black" d="M102,-122.28C102,-143.32 102,-175 102,-175 102,-175 459.4,-175 459.4,-175"/>
<polygon fill="black" stroke="black" points="459.4,-178.5 469.4,-175 459.4,-171.5 459.4,-178.5"/>
</g>
</g>
</svg>
