<?xml version="1.0" encoding="UTF-8" standalone="no"?>
<!DOCTYPE svg PUBLIC "-//W3C//DTD SVG 1.1//EN"
 "http://www.w3.org/Graphics/SVG/1.1/DTD/svg11.dtd">
<!-- Generated by graphviz version 2.47.0 (20210316.0004)
 -->
<!-- Title: dependencies Pages: 1 -->
<svg width="1020pt" height="363pt"
 viewBox="0.00 0.00 1020.00 363.00" xmlns="http://www.w3.org/2000/svg" xmlns:xlink="http://www.w3.org/1999/xlink">
<g id="graph0" class="graph" transform="scale(1 1) rotate(0) translate(4 359)">
<title>dependencies</title>
<polygon fill="white" stroke="transparent" points="-4,4 -4,-359 1016,-359 1016,4 -4,4"/>
<text text-anchor="start" x="485.01" y="-42.4" font-family="Times-12" font-weight="bold" font-size="14.00">Legend</text>
<polygon fill="#ffffb3" stroke="transparent" points="272,-10 272,-30 292,-30 292,-10 272,-10"/>
<text text-anchor="start" x="295.63" y="-15.4" font-family="Times-12" font-size="14.00"> &#160;Declarations</text>
<polygon fill="#8dd3c7" stroke="transparent" points="385,-10 385,-30 405,-30 405,-10 385,-10"/>
<text text-anchor="start" x="408.73" y="-15.4" font-family="Times-12" font-size="14.00"> &#160;Module</text>
<polygon fill="#80b1d3" stroke="transparent" points="471,-10 471,-30 491,-30 491,-10 471,-10"/>
<text text-anchor="start" x="494.78" y="-15.4" font-family="Times-12" font-size="14.00"> &#160;Bootstrap</text>
<polygon fill="#fdb462" stroke="transparent" points="568,-10 568,-30 588,-30 588,-10 568,-10"/>
<text text-anchor="start" x="591.67" y="-15.4" font-family="Times-12" font-size="14.00"> &#160;Providers</text>
<polygon fill="#fb8072" stroke="transparent" points="664,-10 664,-30 684,-30 684,-10 664,-10"/>
<text text-anchor="start" x="687.73" y="-15.4" font-family="Times-12" font-size="14.00"> &#160;Exports</text>
<g id="clust1" class="cluster">
<title>cluster_AppModule</title>
<polygon fill="none" stroke="black" stroke-dasharray="1,5" points="421,-146 421,-339 669,-339 669,-146 421,-146"/>
</g>
<g id="clust3" class="cluster">
<title>cluster_AppModule_imports</title>
<polygon fill="none" stroke="black" points="429,-154 429,-271 661,-271 661,-154 429,-154"/>
</g>
<g id="clust7" class="cluster">
<title>cluster_AuthModule</title>
<polygon fill="none" stroke="black" stroke-dasharray="1,5" points="8,-70 8,-138 1004,-138 1004,-70 8,-70"/>
</g>
<g id="clust12" class="cluster">
<title>cluster_AuthModule_providers</title>
<polygon fill="none" stroke="black" points="16,-78 16,-130 996,-130 996,-78 16,-78"/>
</g>
<g id="clust19" class="cluster">
<title>cluster_UsersModule</title>
<polygon fill="none" stroke="black" stroke-dasharray="1,5" points="677,-279 677,-347 951,-347 951,-279 677,-279"/>
</g>
<g id="clust22" class="cluster">
<title>cluster_UsersModule_exports</title>
<polygon fill="none" stroke="black" points="833,-287 833,-339 943,-339 943,-287 833,-287"/>
</g>
<g id="clust24" class="cluster">
<title>cluster_UsersModule_providers</title>
<polygon fill="none" stroke="black" points="685,-287 685,-339 825,-339 825,-287 685,-287"/>
</g>
<!-- AuthModule -->
<g id="node1" class="node">
<title>AuthModule</title>
<polygon fill="#8dd3c7" stroke="black" points="524.55,-198 521.55,-202 500.55,-202 497.55,-198 437.45,-198 437.45,-162 524.55,-162 524.55,-198"/>
<text text-anchor="middle" x="481" y="-175.8" font-family="Times,serif" font-size="14.00">AuthModule</text>
</g>
<!-- AppModule -->
<g id="node4" class="node">
<title>AppModule</title>
<polygon fill="#8dd3c7" stroke="black" points="583.66,-331 580.66,-335 559.66,-335 556.66,-331 500.34,-331 500.34,-295 583.66,-295 583.66,-331"/>
<text text-anchor="middle" x="542" y="-308.8" font-family="Times,serif" font-size="14.00">AppModule</text>
</g>
<!-- AuthModule&#45;&gt;AppModule -->
<g id="edge1" class="edge">
<title>AuthModule&#45;&gt;AppModule</title>
<path fill="none" stroke="black" d="M512.47,-198.21C512.47,-198.21 512.47,-284.58 512.47,-284.58"/>
<polygon fill="black" stroke="black" points="508.97,-284.58 512.47,-294.58 515.97,-284.58 508.97,-284.58"/>
</g>
<!-- DatabaseModule -->
<g id="node2" class="node">
<title>DatabaseModule</title>
<polygon fill="#8dd3c7" stroke="black" points="653.35,-198 650.35,-202 629.35,-202 626.35,-198 542.65,-198 542.65,-162 653.35,-162 653.35,-198"/>
<text text-anchor="middle" x="598" y="-175.8" font-family="Times,serif" font-size="14.00">DatabaseModule</text>
</g>
<!-- UsersModule -->
<g id="node3" class="node">
<title>UsersModule</title>
<polygon fill="#8dd3c7" stroke="black" points="652.92,-263 649.92,-267 628.92,-267 625.92,-263 561.08,-263 561.08,-227 652.92,-227 652.92,-263"/>
<text text-anchor="middle" x="607" y="-240.8" font-family="Times,serif" font-size="14.00">UsersModule</text>
</g>
<!-- DatabaseModule&#45;&gt;UsersModule -->
<g id="edge10" class="edge">
<title>DatabaseModule&#45;&gt;UsersModule</title>
<path fill="none" stroke="black" d="M607,-198.11C607,-198.11 607,-216.99 607,-216.99"/>
<polygon fill="black" stroke="black" points="603.5,-216.99 607,-226.99 610.5,-216.99 603.5,-216.99"/>
</g>
<!-- DatabaseModule&#45;&gt;AppModule -->
<g id="edge2" class="edge">
<title>DatabaseModule&#45;&gt;AppModule</title>
<path fill="none" stroke="black" d="M551.93,-198.21C551.93,-198.21 551.93,-284.58 551.93,-284.58"/>
<polygon fill="black" stroke="black" points="548.43,-284.58 551.93,-294.58 555.43,-284.58 548.43,-284.58"/>
</g>
<!-- UsersModule&#45;&gt;AppModule -->
<g id="edge3" class="edge">
<title>UsersModule&#45;&gt;AppModule</title>
<path fill="none" stroke="black" d="M572.56,-263.22C572.56,-263.22 572.56,-284.73 572.56,-284.73"/>
<polygon fill="black" stroke="black" points="569.06,-284.73 572.56,-294.73 576.06,-284.73 569.06,-284.73"/>
</g>
<!-- UsersService  -->
<g id="node11" class="node">
<title>UsersService </title>
<polygon fill="#fb8072" stroke="black" points="934.85,-331 841.15,-331 841.15,-295 934.85,-295 934.85,-331"/>
<text text-anchor="middle" x="888" y="-308.8" font-family="Times,serif" font-size="14.00">UsersService </text>
</g>
<!-- UsersModule&#45;&gt;UsersService  -->
<g id="edge11" class="edge">
<title>UsersModule&#45;&gt;UsersService </title>
<path fill="none" stroke="black" stroke-dasharray="5,2" d="M652.86,-245C722.35,-245 846.31,-245 846.31,-245 846.31,-245 846.31,-284.78 846.31,-284.78"/>
<polygon fill="black" stroke="black" points="842.81,-284.78 846.31,-294.78 849.81,-284.78 842.81,-284.78"/>
</g>
<!-- AuthService -->
<g id="node5" class="node">
<title>AuthService</title>
<ellipse fill="#fdb462" stroke="black" cx="929" cy="-104" rx="59.11" ry="18"/>
<text text-anchor="middle" x="929" y="-99.8" font-family="Times,serif" font-size="14.00">AuthService</text>
</g>
<!-- AuthService&#45;&gt;AuthModule -->
<g id="edge4" class="edge">
<title>AuthService&#45;&gt;AuthModule</title>
<path fill="none" stroke="black" d="M902.19,-120.25C902.19,-133.14 902.19,-149 902.19,-149 902.19,-149 517.65,-149 517.65,-149 517.65,-149 517.65,-151.97 517.65,-151.97"/>
<polygon fill="black" stroke="black" points="514.15,-151.97 517.65,-161.97 521.15,-151.97 514.15,-151.97"/>
</g>
<!-- GithubAuthGuard -->
<g id="node6" class="node">
<title>GithubAuthGuard</title>
<ellipse fill="#fdb462" stroke="black" cx="770" cy="-104" rx="81.11" ry="18"/>
<text text-anchor="middle" x="770" y="-99.8" font-family="Times,serif" font-size="14.00">GithubAuthGuard</text>
</g>
<!-- GithubAuthGuard&#45;&gt;AuthModule -->
<g id="edge5" class="edge">
<title>GithubAuthGuard&#45;&gt;AuthModule</title>
<path fill="none" stroke="black" d="M755,-121.87C755,-129.2 755,-136 755,-136 755,-136 511.56,-136 511.56,-136 511.56,-136 511.56,-151.85 511.56,-151.85"/>
<polygon fill="black" stroke="black" points="508.06,-151.85 511.56,-161.85 515.06,-151.85 508.06,-151.85"/>
</g>
<!-- GithubStratergy -->
<g id="node7" class="node">
<title>GithubStratergy</title>
<ellipse fill="#fdb462" stroke="black" cx="597" cy="-104" rx="73.01" ry="18"/>
<text text-anchor="middle" x="597" y="-99.8" font-family="Times,serif" font-size="14.00">GithubStratergy</text>
</g>
<!-- GithubStratergy&#45;&gt;AuthModule -->
<g id="edge6" class="edge">
<title>GithubStratergy&#45;&gt;AuthModule</title>
<path fill="none" stroke="black" d="M533.67,-113.32C533.67,-133.61 533.67,-180 533.67,-180 533.67,-180 532.8,-180 532.8,-180"/>
<polygon fill="black" stroke="black" points="534.98,-176.5 524.98,-180 534.98,-183.5 534.98,-176.5"/>
</g>
<!-- LocalAuthGuard -->
<g id="node8" class="node">
<title>LocalAuthGuard</title>
<ellipse fill="#fdb462" stroke="black" cx="429" cy="-104" rx="76.43" ry="18"/>
<text text-anchor="middle" x="429" y="-99.8" font-family="Times,serif" font-size="14.00">LocalAuthGuard</text>
</g>
<!-- LocalAuthGuard&#45;&gt;AuthModule -->
<g id="edge7" class="edge">
<title>LocalAuthGuard&#45;&gt;AuthModule</title>
<path fill="none" stroke="black" d="M471.34,-119.02C471.34,-119.02 471.34,-151.8 471.34,-151.8"/>
<polygon fill="black" stroke="black" points="467.84,-151.8 471.34,-161.8 474.84,-151.8 467.84,-151.8"/>
</g>
<!-- LocalStratergy -->
<g id="node9" class="node">
<title>LocalStratergy</title>
<ellipse fill="#fdb462" stroke="black" cx="266" cy="-104" rx="68.33" ry="18"/>
<text text-anchor="middle" x="266" y="-99.8" font-family="Times,serif" font-size="14.00">LocalStratergy</text>
</g>
<!-- LocalStratergy&#45;&gt;AuthModule -->
<g id="edge8" class="edge">
<title>LocalStratergy&#45;&gt;AuthModule</title>
<path fill="none" stroke="black" d="M266,-122.03C266,-142.77 266,-174 266,-174 266,-174 427.23,-174 427.23,-174"/>
<polygon fill="black" stroke="black" points="427.23,-177.5 437.23,-174 427.23,-170.5 427.23,-177.5"/>
</g>
<!-- SessionSerializer -->
<g id="node10" class="node">
<title>SessionSerializer</title>
<ellipse fill="#fdb462" stroke="black" cx="102" cy="-104" rx="77.58" ry="18"/>
<text text-anchor="middle" x="102" y="-99.8" font-family="Times,serif" font-size="14.00">SessionSerializer</text>
</g>
<!-- SessionSerializer&#45;&gt;AuthModule -->
<g id="edge9" class="edge">
<title>SessionSerializer&#45;&gt;AuthModule</title>
<path fill="none" stroke="black" d="M102,-122.2C102,-146.36 102,-186 102,-186 102,-186 427.15,-186 427.15,-186"/>
<polygon fill="black" stroke="black" points="427.15,-189.5 437.15,-186 427.15,-182.5 427.15,-189.5"/>
</g>
<!-- UsersService -->
<g id="node12" class="node">
<title>UsersService</title>
<ellipse fill="#fdb462" stroke="black" cx="755" cy="-313" rx="61.95" ry="18"/>
<text text-anchor="middle" x="755" y="-308.8" font-family="Times,serif" font-size="14.00">UsersService</text>
</g>
<!-- UsersService&#45;&gt;UsersModule -->
<g id="edge12" class="edge">
<title>UsersService&#45;&gt;UsersModule</title>
<path fill="none" stroke="black" d="M692.64,-313C656.58,-313 618.27,-313 618.27,-313 618.27,-313 618.27,-273.22 618.27,-273.22"/>
<polygon fill="black" stroke="black" points="621.77,-273.22 618.27,-263.22 614.77,-273.22 621.77,-273.22"/>
</g>
</g>
</svg>
